HIERARCHY
ROOT root
{
	OFFSET	0	13.1	24.9
	CHANNELS 6  Xposition Yposition Zposition Xrotation Yrotation Zrotation
	JOINT spine_1
	{
		OFFSET	0	9.99999	0
		CHANNELS 3  Xrotation Yrotation Zrotation
		JOINT spine_2
		{
			OFFSET	0	112	-10
			CHANNELS 3  Xrotation Yrotation Zrotation
			JOINT spine_3
			{
				OFFSET	0	206.5	19.3
				CHANNELS 3  Xrotation Yrotation Zrotation
				JOINT spine_4
				{
					OFFSET	0	110.4	14.6
					CHANNELS 3  Xrotation Yrotation Zrotation
					JOINT neck_1
					{
						OFFSET	0	71.8	-50.3
						CHANNELS 3  Xrotation Yrotation Zrotation
						JOINT neck_2
						{
							OFFSET	0	86.2	-25.8
							CHANNELS 3  Xrotation Yrotation Zrotation
							JOINT head_ee
							{
								OFFSET	0	179.8	-8.7
								CHANNELS 3  Xrotation Yrotation Zrotation
								End Site
								{
									OFFSET	1	0	0
								}
							}
						}
					}
					JOINT left_clavicle
					{
						OFFSET	-43.2	22.4	-70.8
						CHANNELS 3  Xrotation Yrotation Zrotation
						JOINT left_shoulder
						{
							OFFSET	-93.9	-5.79999	48.7
							CHANNELS 3  Xrotation Yrotation Zrotation
							JOINT left_elbow
							{
								OFFSET	-291.4	-30.8	15.2
								CHANNELS 3  Xrotation Yrotation Zrotation
								JOINT left_lowarm_twist
								{
									OFFSET	-110.7	-3.89999	13.6
									CHANNELS 3  Xrotation Yrotation Zrotation
									JOINT left_hand
									{
										OFFSET	-110.7	-3.89999	13.6
										CHANNELS 3  Xrotation Yrotation Zrotation
										JOINT left_ee
										{
											OFFSET	-80.8	-5.10001	12.1
											CHANNELS 3  Xrotation Yrotation Zrotation
											End Site
											{
												OFFSET	1	0	0
											}
										}
									}
								}
							}
						}
					}
					JOINT right_clavicle
					{
						OFFSET	43.2	22.4	-70.8
						CHANNELS 3  Xrotation Yrotation Zrotation
						JOINT right_shoulder
						{
							OFFSET	93.9	-5.79999	48.7
							CHANNELS 3  Xrotation Yrotation Zrotation
							JOINT right_elbow
							{
								OFFSET	291.4	-30.8	15.2
								CHANNELS 3  Xrotation Yrotation Zrotation
								JOINT right_lowarm_twist
								{
									OFFSET	110.7	-3.89999	13.6
									CHANNELS 3  Xrotation Yrotation Zrotation
									JOINT right_hand
									{
										OFFSET	110.7	-3.89999	13.6
										CHANNELS 3  Xrotation Yrotation Zrotation
										JOINT right_ee
										{
											OFFSET	80.8	-5.10001	12.1
											CHANNELS 3  Xrotation Yrotation Zrotation
											End Site
											{
												OFFSET	1	0	0
											}
										}
									}
								}
							}
						}
					}
				}
			}
		}
	}
	JOINT left_hip
	{
		OFFSET	-82.8	-127.5	0.300001
		CHANNELS 3  Xrotation Yrotation Zrotation
		JOINT left_knee
		{
			OFFSET	-28.2	-396.7	2.2
			CHANNELS 3  Xrotation Yrotation Zrotation
			JOINT left_ankle
			{
				OFFSET	-11.7	-411.3	35.4
				CHANNELS 3  Xrotation Yrotation Zrotation
				JOINT left_toes
				{
					OFFSET	0	-60	-88.6
					CHANNELS 3  Xrotation Yrotation Zrotation
					JOINT left_foot_ee
					{
						OFFSET	-22.5	-16.5	-42.2
						CHANNELS 3  Xrotation Yrotation Zrotation
						End Site
						{
							OFFSET	1	0	0
						}
					}
				}
			}
		}
	}
	JOINT right_hip
	{
		OFFSET	82.8	-127.5	0.300001
		CHANNELS 3  Xrotation Yrotation Zrotation
		JOINT right_knee
		{
			OFFSET	28.2	-396.7	2.2
			CHANNELS 3  Xrotation Yrotation Zrotation
			JOINT right_ankle
			{
				OFFSET	11.7	-411.3	35.4
				CHANNELS 3  Xrotation Yrotation Zrotation
				JOINT right_toes
				{
					OFFSET	0	-60	-88.6
					CHANNELS 3  Xrotation Yrotation Zrotation
					JOINT right_foot_ee
					{
						OFFSET	22.5	-16.5	-42.2
						CHANNELS 3  Xrotation Yrotation Zrotation
						End Site
						{
							OFFSET	1	0	0
						}
					}
				}
			}
		}
	}
}
MOTION
Frames: 8
Frame Time: 0.02
404.185 719.181 -1238.4 -160.575 -41.8297 -173.32 3.31477 0.437058 1.4821 3.31593 0.341874 1.5069 3.3245 0.107164 1.54146 3.32136 0.349236 1.50521 2.22093 9.72971 3.24204 2.40277 14.3409 4.33032 -0.0 0.0 -0.0 6.57852 20.0718 12.1059 -34.8308 -26.678 70.2955 0.517798 -14.3865 0.0653515 23.3698 0.223281 -2.9563 3.75999 6.35482 28.4592 -0.0 0.0 -0.0 9.62344 -5.13975 -18.5815 16.7659 -30.7191 -71.5263 1.01922 26.7883 -0.242709 85.3716 4.47107 8.88312 -5.06513 -8.87396 30.5174 0.0 0.0 0.0 35.0473 2.86916 5.7899 -17.2774 0.318114 2.62227 2.16774 24.3635 -0.328303 13.37 -0.0 -0.0 -0.0 0.0 -0.0 17.8051 15.259 6.99482 -19.3191 -0.303119 -2.93515 5.9832 -29.6617 0.926174 16.847 -0.0 -0.0 0.0 0.0 0.0 
407.999 715.364 -1232.9 -160.749 -41.9929 -173.198 3.45394 0.545911 1.65351 3.45535 0.439602 1.68489 3.46772 0.180868 1.73186 3.46382 0.452075 1.68159 2.86977 10.684 3.49918 3.09986 15.6853 4.63301 -0.0 0.0 -0.0 6.47851 15.3379 12.2354 -34.4633 -25.8261 73.1769 0.504698 -14.0371 0.0621355 25.5417 0.1825 -3.23073 3.24394 6.2144 24.6021 -0.0 0.0 -0.0 9.65488 -6.05294 -18.5733 14.5684 -31.6851 -72.1619 0.969253 25.647 -0.220632 83.3895 4.23474 8.78917 -4.66381 -7.48323 28.4061 0.0 0.0 0.0 34.4564 5.6325 4.98768 -17.5659 0.316671 2.66651 4.57899 23.9226 -0.687813 13.6565 -0.0 -0.0 -0.0 0.0 -0.0 18.4132 17.4923 6.22544 -21.2954 -0.277994 -3.23735 6.04065 -29.1084 0.931421 16.0335 -0.0 -0.0 0.0 0.0 0.0 
419.251 713.983 -1228.69 -161.105 -41.6948 -173.489 3.48945 0.503839 1.60071 3.49078 0.400975 1.62952 3.50164 0.151991 1.67122 3.49798 0.413986 1.62626 2.81517 11.1474 3.68141 3.06507 16.3529 4.86844 -0.0 0.0 -0.0 6.89473 18.8479 12.6836 -36.9551 -27.7904 69.4851 0.511355 -14.2148 0.06376 23.4701 0.221627 -2.96901 3.02397 3.38719 21.9781 -0.0 0.0 -0.0 8.70454 -7.67581 -16.6358 11.2071 -29.9161 -75.2251 0.875215 23.4392 -0.181564 83.9977 4.30692 8.81887 -4.14003 -8.89068 23.7226 0.0 0.0 0.0 33.1496 5.70652 4.87873 -18.1147 0.313313 2.75064 7.14517 21.1063 -1.05236 9.71679 -0.0 -0.0 -0.0 0.0 -0.0 19.1204 20.4223 5.8367 -23.752 -0.232255 -3.61151 0.184421 -30.2916 0.0290716 16.2623 -0.0 -0.0 0.0 0.0 0.0 
427.141 713.173 -1226.16 -161.755 -41.4581 -173.433 3.46746 0.510021 1.6752 3.46893 0.402406 1.70425 3.4803 0.141548 1.74537 3.47629 0.41538 1.70113 3.20309 11.2881 2.4445 3.50135 17.584 3.45982 -0.0 0.0 -0.0 6.82114 17.2718 12.6792 -34.7824 -27.0264 70.463 0.512705 -14.2508 0.064092 20.3418 0.262717 -2.57158 2.3863 5.68235 18.3378 -0.0 0.0 -0.0 8.84369 -8.13177 -16.8647 12.8582 -28.6903 -74.6597 0.833233 22.4287 -0.165204 83.1132 4.20206 8.77543 -4.64704 -13.2967 24.5157 0.0 0.0 0.0 34.3826 -1.05138 5.61913 -20.5314 0.288943 3.12062 4.11965 25.3909 -0.62425 10.2504 -0.0 -0.0 -0.0 0.0 -0.0 19.4551 21.4333 5.16252 -25.7582 -0.183029 -3.91542 -0.375642 -29.3311 -0.0588967 12.1896 -0.0 -0.0 0.0 0.0 0.0 
438.61 718.653 -1213.34 -168.91 -55.385 -176.45 -0.31399 0.684484 1.67173 -0.31262 0.576736 1.71188 -0.294109 0.195 1.79585 -0.298294 0.47613 1.74254 14.0265 7.08564 0.514501 14.23 10.6673 0.509657 -0.0 0.0 -0.0 7.51145 24.687 13.0404 -23.8428 -28.3458 61.218 0.702908 -19.1982 0.118878 31.555 0.0156812 -3.98039 2.45225 -8.54343 13.0382 -0.0 0.0 -0.0 9.85995 -17.221 -17.6699 -11.5354 24.5374 -62.8566 2.42911 50.2643 -1.13968 75.5685 3.33773 8.34049 -3.95755 -1.89743 26.4567 0.0 0.0 0.0 30.6711 -21.1838 12.0605 -22.5185 0.257228 3.42387 11.0835 28.5389 -1.6778 -15.138 0.0 0.0 -0.0 0.0 -0.0 8.96536 12.9381 4.73284 -23.8823 -0.229383 -3.63129 -3.40643 -31.1701 -0.54417 12.872 -0.0 -0.0 0.0 0.0 0.0 
448.276 716.815 -1216.24 -168.607 -55.99 -175.575 0.108326 0.564465 1.49287 0.109444 0.468337 1.52575 0.122747 0.140703 1.58978 0.119432 0.389984 1.54763 14.7812 7.08912 0.939504 14.9607 10.1786 1.04485 -0.0 0.0 -0.0 7.7534 25.5996 13.2659 -23.5415 -27.9933 61.8471 0.607606 -16.7514 0.0894611 32.3652 -0.0127837 -4.07994 1.22815 -5.78901 5.83904 -0.0 0.0 -0.0 9.99234 -19.0153 -17.6093 -11.5298 24.6808 -61.6722 2.38587 49.7579 -1.10654 69.4668 2.68523 7.90826 -3.90595 -4.70464 24.4934 0.0 0.0 0.0 30.3802 -21.0465 12.0977 -22.84 0.251108 3.47283 10.949 29.0864 -1.66421 -16.6445 0.0 0.0 -0.0 0.0 -0.0 9.85839 16.3465 3.68982 -27.7825 -0.122591 -4.22021 -7.12728 -27.8186 -1.12025 8.11228 -0.0 -0.0 0.0 0.0 0.0 
460.36 715.025 -1214.46 -170.403 -54.5963 -177.006 0.0261179 0.76238 1.55836 0.0272256 0.661685 1.6037 0.0467838 0.311431 1.70664 0.0431833 0.577018 1.63607 14.3516 6.55778 0.396853 14.5305 9.90975 0.364019 -0.0 0.0 -0.0 7.64841 25.4482 13.1397 -24.1942 -29.727 61.5305 0.624554 -17.1914 0.094408 31.6563 0.0121984 -3.99286 0.297109 -0.117253 1.93559 -0.0 0.0 -0.0 9.76949 -19.757 -17.1278 -9.66881 21.4838 -63.3713 2.49363 51.0004 -1.18955 65.1396 2.25224 7.56105 -3.82524 -4.80969 23.8486 0.0 0.0 0.0 29.384 -17.4101 10.9329 -25.4251 0.191938 3.86509 13.4666 27.6618 -2.01128 -17.6137 0.0 0.0 -0.0 0.0 -0.0 11.9316 14.5854 3.80133 -31.8974 0.0332752 -4.83234 -12.332 -29.5634 -1.97299 13.0402 -0.0 -0.0 0.0 0.0 0.0 
474.916 713.977 -1205.89 -167.834 -54.5605 -174.727 0.674011 0.434666 1.72501 0.675608 0.324036 1.74916 0.686184 -0.029491 1.77867 0.681857 0.251742 1.76101 13.3923 6.5427 0.628416 13.5561 9.77567 0.686916 -0.0 0.0 -0.0 7.43913 19.5987 13.4686 -25.4761 -27.8918 62.526 0.450668 -12.585 0.0496947 33.3693 -0.0500169 -4.20277 1.63556 -9.28485 7.11586 -0.0 0.0 -0.0 9.2571 -21.3747 -16.0649 -9.50281 23.1725 -63.5715 2.40828 50.0218 -1.12369 62.8605 2.03511 7.36539 -4.36588 -9.58961 24.9042 0.0 0.0 0.0 27.0014 -16.1253 9.73639 -20.4362 0.290198 3.10608 13.6517 27.9041 -2.04079 -19.3841 0.0 0.0 -0.0 0.0 -0.0 13.9655 17.8769 2.56733 -35.2762 0.193908 -5.32576 -13.633 -28.3608 -2.16711 8.34736 -0.0 -0.0 0.0 0.0 0.0 
